<svg width="30" height="30" viewBox="0 0 300 300" fill="none" xmlns="http://www.w3.org/2000/svg">
<circle cx="150" cy="150" r="142" fill="#1F63ED" stroke="white" stroke-width="16"/>
<path d="M198.091 119C196.341 113.644 194.034 108.845 191.17 104.602C188.36 100.307 184.992 96.6477 181.068 93.625C177.197 90.6023 172.795 88.2954 167.864 86.7045C162.932 85.1136 157.523 84.3182 151.636 84.3182C141.985 84.3182 133.208 86.8106 125.307 91.7955C117.405 96.7803 111.121 104.125 106.455 113.83C101.788 123.534 99.4545 135.439 99.4545 149.545C99.4545 163.652 101.814 175.557 106.534 185.261C111.254 194.966 117.644 202.311 125.705 207.295C133.765 212.28 142.833 214.773 152.909 214.773C162.242 214.773 170.462 212.784 177.568 208.807C184.727 204.777 190.295 199.102 194.273 191.784C198.303 184.413 200.318 175.742 200.318 165.773L206.364 167.045H157.364V149.545H219.409V167.045C219.409 180.462 216.545 192.129 210.818 202.045C205.144 211.962 197.295 219.652 187.273 225.114C177.303 230.523 165.848 233.227 152.909 233.227C138.485 233.227 125.811 229.833 114.886 223.045C104.015 216.258 95.5303 206.606 89.4318 194.091C83.3864 181.576 80.3636 166.727 80.3636 149.545C80.3636 136.659 82.0871 125.072 85.5341 114.784C89.0341 104.443 93.9659 95.6402 100.33 88.375C106.693 81.1098 114.223 75.5417 122.92 71.6705C131.617 67.7992 141.189 65.8636 151.636 65.8636C160.227 65.8636 168.235 67.1629 175.659 69.7614C183.136 72.3068 189.792 75.9394 195.625 80.6591C201.511 85.3257 206.417 90.9204 210.341 97.4432C214.265 103.913 216.97 111.098 218.455 119H198.091Z" fill="white"/>
</svg>
